<svg xmlns="http://www.w3.org/2000/svg" xmlns:xlink="http://www.w3.org/1999/xlink" version="1.1" width="256" height="256" viewBox="0 0 256 256" xml:space="preserve">

<defs>
</defs>
<g style="stroke: none; stroke-width: 0; stroke-dasharray: none; stroke-linecap: butt; stroke-linejoin: miter; stroke-miterlimit: 10; fill: none; fill-rule: nonzero; opacity: 1;" transform="translate(1.4065934065934016 1.4065934065934016) scale(2.81 2.81)" >
	<path d="M 60.302 40.181 H 29.698 c -1.89 0 -3.422 -1.532 -3.422 -3.422 V 11.12 c 0 -1.89 1.532 -3.422 3.422 -3.422 h 30.605 c 1.89 0 3.422 1.532 3.422 3.422 v 25.639 C 63.724 38.648 62.192 40.181 60.302 40.181 z M 33.119 33.337 h 23.761 V 16.383 c 0 -1.017 -0.824 -1.841 -1.841 -1.841 H 34.961 c -1.017 0 -1.841 0.824 -1.841 1.841 V 33.337 z" style="stroke: none; stroke-width: 1; stroke-dasharray: none; stroke-linecap: butt; stroke-linejoin: miter; stroke-miterlimit: 10; fill: rgb(255,178,41); fill-rule: nonzero; opacity: 1;" transform=" matrix(1 0 0 1 0 0) " stroke-linecap="round" />
	<path d="M 60.303 41.181 H 29.698 c -2.438 0 -4.422 -1.983 -4.422 -4.422 V 11.12 c 0 -2.438 1.984 -4.422 4.422 -4.422 h 30.605 c 2.438 0 4.422 1.983 4.422 4.422 v 25.639 C 64.725 39.197 62.741 41.181 60.303 41.181 z M 29.698 8.698 c -1.336 0 -2.422 1.086 -2.422 2.422 v 25.639 c 0 1.335 1.086 2.422 2.422 2.422 h 30.605 c 1.335 0 2.422 -1.086 2.422 -2.422 V 11.12 c 0 -1.335 -1.087 -2.422 -2.422 -2.422 H 29.698 z M 57.881 34.337 H 32.12 V 16.383 c 0 -1.567 1.274 -2.841 2.841 -2.841 h 20.079 c 1.567 0 2.842 1.274 2.842 2.841 V 34.337 z M 34.12 32.337 h 21.761 V 16.383 c 0 -0.464 -0.378 -0.841 -0.842 -0.841 H 34.96 c -0.464 0 -0.841 0.377 -0.841 0.841 V 32.337 z" style="stroke: none; stroke-width: 1; stroke-dasharray: none; stroke-linecap: butt; stroke-linejoin: miter; stroke-miterlimit: 10; fill: rgb(0,0,0); fill-rule: nonzero; opacity: 1;" transform=" matrix(1 0 0 1 0 0) " stroke-linecap="round" />
	<path d="M 83.663 82.302 H 6.337 C 3.389 82.302 1 79.913 1 76.965 V 27.603 c 0 -2.947 2.389 -5.337 5.337 -5.337 h 77.327 c 2.947 0 5.337 2.389 5.337 5.337 v 49.362 C 89 79.913 86.611 82.302 83.663 82.302 z" style="stroke: none; stroke-width: 1; stroke-dasharray: none; stroke-linecap: butt; stroke-linejoin: miter; stroke-miterlimit: 10; fill: rgb(238,234,241); fill-rule: nonzero; opacity: 1;" transform=" matrix(1 0 0 1 0 0) " stroke-linecap="round" />
	<path d="M 83.663 83.302 H 6.336 C 2.842 83.302 0 80.459 0 76.965 V 27.604 c 0 -3.494 2.842 -6.337 6.336 -6.337 h 77.327 c 3.494 0 6.337 2.843 6.337 6.337 v 49.361 C 90 80.459 87.157 83.302 83.663 83.302 z M 6.336 23.267 C 3.945 23.267 2 25.212 2 27.604 v 49.361 c 0 2.392 1.945 4.337 4.336 4.337 h 77.327 c 2.392 0 4.337 -1.945 4.337 -4.337 V 27.604 c 0 -2.392 -1.945 -4.337 -4.337 -4.337 H 6.336 z" style="stroke: none; stroke-width: 1; stroke-dasharray: none; stroke-linecap: butt; stroke-linejoin: miter; stroke-miterlimit: 10; fill: rgb(0,0,0); fill-rule: nonzero; opacity: 1;" transform=" matrix(1 0 0 1 0 0) " stroke-linecap="round" />
	<path d="M 45.742 65.504 c -0.41 0.41 -1.074 0.41 -1.484 0 L 33.06 54.306 c -1.723 -1.723 -2.544 -4.109 -2.224 -6.583 c 0.173 -1.334 0.699 -2.61 1.519 -3.678 c 1.569 -2.044 3.932 -3.163 6.458 -3.094 c 2.054 0.056 3.992 0.968 5.445 2.421 v 0 c 0.41 0.41 1.074 0.41 1.484 0 l 0.017 -0.017 c 1.433 -1.433 3.342 -2.332 5.368 -2.402 c 2.194 -0.076 4.27 0.743 5.813 2.287 l 0 0 c 1.478 1.478 2.292 3.443 2.292 5.533 c 0 2.09 -0.814 4.055 -2.292 5.533 L 45.742 65.504 z" style="stroke: none; stroke-width: 1; stroke-dasharray: none; stroke-linecap: butt; stroke-linejoin: miter; stroke-miterlimit: 10; fill: rgb(254,85,120); fill-rule: nonzero; opacity: 1;" transform=" matrix(1 0 0 1 0 0) " stroke-linecap="round" />
	<path d="M 45 66.812 c -0.548 0 -1.063 -0.214 -1.45 -0.601 L 32.353 55.013 c -1.952 -1.951 -2.867 -4.655 -2.509 -7.418 c 0.195 -1.512 0.789 -2.949 1.717 -4.158 c 1.76 -2.292 4.434 -3.559 7.278 -3.485 c 2.262 0.062 4.438 1.025 6.125 2.714 c 1.747 -1.678 3.893 -2.635 6.127 -2.712 c 2.51 -0.074 4.807 0.831 6.556 2.58 c 1.667 1.667 2.585 3.883 2.585 6.24 c 0 2.356 -0.918 4.572 -2.585 6.24 L 46.449 66.211 C 46.063 66.599 45.547 66.812 45 66.812 z M 38.594 41.948 c -2.144 0 -4.121 0.979 -5.446 2.706 c -0.714 0.93 -1.17 2.035 -1.32 3.196 c -0.277 2.144 0.429 4.238 1.939 5.748 l 11.268 11.198 L 56.233 53.6 c 1.289 -1.29 1.999 -3.004 1.999 -4.826 c 0 -1.823 -0.71 -3.537 -1.999 -4.826 c -1.354 -1.354 -3.188 -2.064 -5.071 -1.995 c -1.728 0.06 -3.395 0.809 -4.695 2.11 c -0.818 0.817 -2.117 0.816 -2.916 0.018 c -1.325 -1.325 -3.018 -2.081 -4.766 -2.129 C 38.721 41.949 38.657 41.948 38.594 41.948 z" style="stroke: none; stroke-width: 1; stroke-dasharray: none; stroke-linecap: butt; stroke-linejoin: miter; stroke-miterlimit: 10; fill: rgb(0,0,0); fill-rule: nonzero; opacity: 1;" transform=" matrix(1 0 0 1 0 0) " stroke-linecap="round" />
	<rect x="12.39" y="22.27" rx="0" ry="0" width="8.51" height="60.03" style="stroke: none; stroke-width: 1; stroke-dasharray: none; stroke-linecap: butt; stroke-linejoin: miter; stroke-miterlimit: 10; fill: rgb(254,85,120); fill-rule: nonzero; opacity: 1;" transform=" matrix(1 0 0 1 0 0) "/>
	<rect x="69.1" y="22.27" rx="0" ry="0" width="8.51" height="60.03" style="stroke: none; stroke-width: 1; stroke-dasharray: none; stroke-linecap: butt; stroke-linejoin: miter; stroke-miterlimit: 10; fill: rgb(254,85,120); fill-rule: nonzero; opacity: 1;" transform=" matrix(1 0 0 1 0 0) "/>
	<path d="M 21.9 83.302 H 11.393 V 21.267 H 21.9 V 83.302 z M 13.393 81.302 H 19.9 V 23.267 h -6.507 V 81.302 z" style="stroke: none; stroke-width: 1; stroke-dasharray: none; stroke-linecap: butt; stroke-linejoin: miter; stroke-miterlimit: 10; fill: rgb(0,0,0); fill-rule: nonzero; opacity: 1;" transform=" matrix(1 0 0 1 0 0) " stroke-linecap="round" />
	<path d="M 78.606 83.302 H 68.101 V 21.267 h 10.506 V 83.302 z M 70.101 81.302 h 6.506 V 23.267 h -6.506 V 81.302 z" style="stroke: none; stroke-width: 1; stroke-dasharray: none; stroke-linecap: butt; stroke-linejoin: miter; stroke-miterlimit: 10; fill: rgb(0,0,0); fill-rule: nonzero; opacity: 1;" transform=" matrix(1 0 0 1 0 0) " stroke-linecap="round" />
</g>
</svg>